# xmcd
#
# Track frame offsets:
#	14331
#	41699
#	56371
#	75987
#	93659
#	111331
#	135243
#	160763
#
# Disc length: 2381 seconds
#
# Revision: 1
# Processed by: cddbd v1.5.1PL2 Copyright (c) Steve Scherf et al.
# Submitted via: audiograbber 1.83.01
#
DISCID=62088e08
DTITLE=Mbongeni Ngema's - Sarafina
DYEAR=1900
DGENRE=Afrika-Folk 
TTITLE0=Sarafina
TTITLE1=All Right
TTITLE2=Kilimanjaro
TTITLE3=Wawungalelani
TTITLE4=Coming Tomorrow
TTITLE5=Safa Isizwe
TTITLE6=Mama
TTITLE7=Give us Power
EXTD=
EXTT0=
EXTT1=
EXTT2=
EXTT3=
EXTT4=
EXTT5=
EXTT6=
EXTT7=
PLAYORDER=
